<svg id="Layer_1" data-name="Layer 1" xmlns="http://www.w3.org/2000/svg" viewBox="0 0 600 600"><defs><style>.cls-1{fill:#101017;}.cls-2{fill:#fc5866;}</style></defs><g id="typo"><circle id="logo-bg" class="cls-1" cx="300" cy="300" r="300"/><path class="cls-2" d="M192.63,243.71l70.42-47.28Q253,216.56,243,236.71Z"/><path class="cls-2" d="M134,291.77l.84-4.31c1.48-7.45,10.23-10.24,10.69-10.38h0l225-32L327.49,197.4l-29.68,58-34.89,5q24.16-46.29,48.32-92.6a15.49,15.49,0,0,1,12-8c7.86-1.08,14.66,4.9,17.42,7.63l84,94.69L143.37,302h0Z"/><path class="cls-2" d="M164.13,325.08l280.61-39.73,21.67,22.8-131,18.36L320.6,354.72,415,342.08Q391.4,358,367.81,373.9l-143.7,19.57Q194.13,359.27,164.13,325.08Z"/><path class="cls-1" d="M218.47,343.36l82-11.29-14.22,27.54-48.07,7.11Z"/><path class="cls-2" d="M244.58,417.39l72.82-11L267,440.71Q255.78,429.06,244.58,417.39Z"/></g></svg>